<svg width="47" height="47" viewBox="0 0 47 47" fill="none" xmlns="http://www.w3.org/2000/svg">
<g clip-path="url(#clip0_2016_81)">
<path d="M46.9972 22.8541V24.1392C46.9568 24.3155 46.9005 24.4893 46.8785 24.6668C46.7194 25.9066 46.6594 27.1661 46.3975 28.3827C45.0487 34.6286 41.6717 39.5244 36.3891 43.0714C32.8543 45.4447 28.9303 46.7151 24.6636 46.8865C24.5021 46.8926 24.3429 46.9624 24.1838 47.0028H22.9011C22.7261 46.9624 22.5535 46.9024 22.376 46.8828C21.4838 46.7849 20.5842 46.7408 19.7005 46.5964C15.0176 45.8351 10.9394 43.7984 7.51229 40.5317C3.30677 36.5257 0.863752 31.6103 0.300732 25.7977C0.0608357 23.3192 0.164872 20.8541 0.726669 18.4209C2.09016 12.5226 5.22716 7.79816 10.1646 4.31723C15.2526 0.729805 20.9354 -0.525976 27.0614 0.346706C31.6659 1.00275 35.7245 2.94517 39.1626 6.08952C43.9104 10.4321 46.5137 15.8273 46.876 22.2813C46.887 22.4734 46.9544 22.6631 46.996 22.8529L46.9972 22.8541ZM29.9022 38.3677C29.9095 38.3298 29.9169 38.2919 29.9254 38.2551C30.7957 38.227 31.5092 37.8671 32.1139 37.2515C33.0245 36.325 33.9486 35.4131 34.8641 34.4902C35.4063 33.9444 35.4124 33.538 34.8788 33.0007C33.2081 31.3214 31.5349 29.6458 29.8593 27.9714C29.3061 27.4182 28.8912 27.4194 28.3306 27.9776C27.4959 28.8062 26.6685 29.6434 25.835 30.4732C25.1924 31.1121 24.7469 31.1513 24.0259 30.6164C21.1215 28.4635 18.5952 25.9299 16.446 23.0205C15.916 22.3033 15.9576 21.8517 16.5965 21.2066C17.4472 20.3499 18.3052 19.5004 19.1521 18.64C19.6197 18.1651 19.6234 17.7159 19.1546 17.2459C17.4533 15.5324 15.7471 13.8237 14.0384 12.1187C13.5672 11.6475 13.1107 11.6402 12.6407 12.104C11.6627 13.071 10.6897 14.0428 9.72766 15.0256C8.91495 15.8555 8.68485 16.8665 8.89414 17.9888C9.26623 19.9802 10.052 21.8149 11.0495 23.5603C13.3432 27.5712 16.4056 30.9065 20.0395 33.7265C22.2475 35.44 24.622 36.8733 27.2976 37.735C28.1458 38.0079 29.0332 38.1609 29.9022 38.369V38.3677ZM38.2398 20.8541C38.2642 20.8505 38.2887 20.8468 38.312 20.8431C38.1957 20.0916 38.1137 19.3327 37.9583 18.5886C36.7796 12.962 31.4566 8.69043 25.7297 8.76142C25.1667 8.76876 24.8521 9.03926 24.8448 9.5215C24.8387 9.99394 25.1728 10.2938 25.7089 10.3207C26.1948 10.344 26.6844 10.3575 27.1654 10.426C31.7161 11.071 35.4222 14.4944 36.41 18.9998C36.5813 19.7832 36.607 20.5995 36.6915 21.4025C36.7416 21.8798 37.0954 22.2458 37.5103 22.2286C37.957 22.2103 38.263 21.859 38.2618 21.3584C38.2618 21.1907 38.2459 21.023 38.2373 20.8554L38.2398 20.8541ZM32.7393 21.1283C32.7222 21.0108 32.6854 20.7856 32.6597 20.5592C32.2864 17.2557 29.5386 14.4357 25.7689 14.2974C25.223 14.2778 24.8338 14.6181 24.8215 15.0832C24.8093 15.5507 25.1679 15.8812 25.726 15.9155C25.7566 15.9167 25.7872 15.9167 25.8178 15.9179C26.7688 15.9375 27.6574 16.1957 28.4579 16.7025C30.1017 17.7428 31.016 19.2312 31.1139 21.1968C31.1469 21.8492 31.4468 22.2176 31.9339 22.2152C32.4186 22.2127 32.7393 21.8247 32.7393 21.1295V21.1283ZM28.2584 22.4355C28.2351 20.7574 26.8349 18.9509 24.5914 18.9093C24.3368 18.9044 23.9684 19.154 23.8521 19.3854C23.7469 19.5947 23.8326 20.001 23.9843 20.2103C24.1153 20.3902 24.4531 20.4698 24.7101 20.498C25.6293 20.5983 26.3747 21.1993 26.6158 22.0928C26.6513 22.225 26.6844 22.3596 26.6991 22.4942C26.7676 23.127 27.0552 23.4612 27.5216 23.4404C28.0087 23.4195 28.2608 23.0732 28.2584 22.4343V22.4355Z" fill="#F2A900"/>
<path d="M29.9011 38.3641C29.0321 38.1561 28.1447 38.0031 27.2965 37.7301C24.621 36.8685 22.2465 35.4352 20.0385 33.7217C16.4045 30.9029 13.341 27.5664 11.0485 23.5555C10.051 21.8101 9.26519 19.9754 8.8931 17.984C8.68381 16.8616 8.91513 15.8519 9.72662 15.0208C10.6887 14.038 11.6617 13.0662 12.6396 12.0992C13.1096 11.6353 13.5662 11.6427 14.0374 12.1139C15.746 13.8201 17.4522 15.5288 19.1535 17.2411C19.6211 17.7123 19.6187 18.1603 19.1511 18.6352C18.3041 19.4944 17.4461 20.345 16.5955 21.2018C15.9566 21.8456 15.915 22.2972 16.4449 23.0157C18.5942 25.9251 21.1192 28.4599 24.0249 30.6116C24.7458 31.1465 25.1913 31.1073 25.8339 30.4684C26.6687 29.6385 27.4948 28.8014 28.3296 27.9727C28.8914 27.4158 29.3051 27.4134 29.8583 27.9666C31.5339 29.641 33.207 31.3166 34.8777 32.9959C35.4114 33.532 35.4053 33.9383 34.8631 34.4854C33.9475 35.4071 33.0234 36.3201 32.1128 37.2467C31.5082 37.8623 30.7946 38.2222 29.9244 38.2503C29.917 38.2883 29.9097 38.3262 29.9011 38.3629V38.3641Z" fill="#28458D"/>
<path d="M38.2442 20.8526C38.2528 21.0203 38.2687 21.188 38.2687 21.3557C38.2687 21.8563 37.9627 22.2075 37.5172 22.2259C37.1023 22.243 36.7486 21.8783 36.6984 21.3997C36.6139 20.598 36.5894 19.7804 36.4169 18.9971C35.4291 14.4917 31.723 11.0695 27.1723 10.4233C26.6913 10.3547 26.2017 10.3413 25.7158 10.318C25.1797 10.2923 24.8443 9.99121 24.8517 9.51876C24.8578 9.0353 25.1736 8.7648 25.7366 8.75868C31.4635 8.68769 36.7865 12.9593 37.9652 18.5858C38.1206 19.3288 38.2026 20.0889 38.3189 20.8404C38.2944 20.844 38.2699 20.8477 38.2467 20.8514L38.2442 20.8526Z" fill="#28458D"/>
<path d="M32.7385 21.122C32.7385 21.8172 32.4178 22.2052 31.9331 22.2077C31.446 22.2101 31.1449 21.8405 31.113 21.1893C31.0151 19.2236 30.1008 17.7353 28.4571 16.6949C27.6578 16.1882 26.7692 15.93 25.817 15.9104C25.7864 15.9104 25.7558 15.9104 25.7252 15.9079C25.1671 15.8749 24.8072 15.5444 24.8207 15.0756C24.8329 14.6105 25.2209 14.2703 25.768 14.2899C29.5378 14.4282 32.2856 17.2482 32.6589 20.5516C32.6846 20.7781 32.7226 21.0045 32.7385 21.1208V21.122Z" fill="#28458D"/>
<path d="M28.2575 22.4294C28.2612 23.0683 28.0078 23.4147 27.5207 23.4355C27.0544 23.4563 26.7667 23.1209 26.6982 22.4893C26.6835 22.3535 26.6505 22.2188 26.615 22.0879C26.3738 21.1944 25.6284 20.5934 24.7093 20.4931C24.4522 20.4649 24.1144 20.3854 23.9834 20.2054C23.8317 19.9961 23.746 19.5898 23.8513 19.3805C23.9675 19.1492 24.3359 18.8995 24.5905 18.9044C26.834 18.946 28.2343 20.7525 28.2575 22.4306V22.4294Z" fill="#28458D"/>
</g>
<defs>
<clipPath id="clip0_2016_81">
<rect width="47" height="47" fill="white"/>
</clipPath>
</defs>
</svg>
