<svg width="30" height="30" viewBox="0 0 30 30" fill="none" xmlns="http://www.w3.org/2000/svg">
<circle cx="15" cy="15" r="15" fill="#D9D9D9"/>
<path d="M6 24L7.27129 19.3777C6.48681 18.0247 6.0746 16.491 6.07536 14.9182C6.07762 10.0012 10.098 6 15.0377 6C17.4348 6.00075 19.685 6.93 21.3775 8.616C23.0693 10.302 24.0008 12.543 24 14.9265C23.9977 19.8443 19.9774 23.8455 15.0377 23.8455C13.5381 23.8448 12.0603 23.4705 10.7513 22.7595L6 24ZM10.9714 21.1448C12.2344 21.891 13.4401 22.338 15.0347 22.3387C19.1402 22.3387 22.4846 19.0132 22.4868 14.925C22.4883 10.8285 19.1598 7.5075 15.0407 7.506C10.9322 7.506 7.59005 10.8315 7.58855 14.919C7.58779 16.5878 8.07913 17.8372 8.9043 19.1445L8.15147 21.8805L10.9714 21.1448ZM19.5524 17.0468C19.4966 16.9538 19.3474 16.8982 19.1228 16.7865C18.899 16.6747 17.798 16.1355 17.5923 16.0612C17.3873 15.987 17.2381 15.9495 17.0882 16.173C16.939 16.3958 16.5094 16.8983 16.379 17.0468C16.2487 17.1953 16.1176 17.214 15.8937 17.1023C15.6699 16.9905 14.948 16.7558 14.0927 15.996C13.4273 15.405 12.9774 14.6753 12.847 14.4518C12.7167 14.229 12.8335 14.1083 12.945 13.9973C13.046 13.8975 13.1688 13.737 13.2811 13.6065C13.3949 13.4775 13.4318 13.3845 13.5072 13.2353C13.5818 13.0868 13.5448 12.9563 13.4883 12.8445C13.4318 12.7335 12.9842 11.6363 12.798 11.19C12.6157 10.7558 12.431 10.8142 12.2939 10.8075L11.8644 10.8C11.7151 10.8 11.4725 10.8555 11.2675 11.079C11.0625 11.3025 10.4838 11.841 10.4838 12.9383C10.4838 14.0355 11.2864 15.0952 11.3979 15.2437C11.5102 15.3922 12.9766 17.6438 15.2231 18.609C15.7573 18.8385 16.1748 18.9757 16.4996 19.0785C17.0362 19.248 17.5245 19.224 17.9103 19.167C18.3406 19.1032 19.2351 18.6277 19.422 18.1072C19.6089 17.586 19.6089 17.1398 19.5524 17.0468Z" fill="#333333"/>
</svg>
