<svg width="30" height="30" viewBox="0 0 30 30" fill="none" xmlns="http://www.w3.org/2000/svg">
<circle cx="15" cy="15" r="15" fill="#D9D9D9"/>
<g clip-path="url(#clip0_2305_32)">
<path d="M15 7.6207C17.4047 7.6207 17.6895 7.63125 18.6352 7.67344C19.5141 7.71211 19.9887 7.85977 20.3051 7.98281C20.7234 8.14453 21.0258 8.34141 21.3387 8.6543C21.6551 8.9707 21.8484 9.26953 22.0102 9.68789C22.1332 10.0043 22.2809 10.4824 22.3195 11.3578C22.3617 12.307 22.3723 12.5918 22.3723 14.993C22.3723 17.3977 22.3617 17.6824 22.3195 18.6281C22.2809 19.507 22.1332 19.9816 22.0102 20.298C21.8484 20.7164 21.6516 21.0187 21.3387 21.3316C21.0223 21.648 20.7234 21.8414 20.3051 22.0031C19.9887 22.1262 19.5105 22.2738 18.6352 22.3125C17.6859 22.3547 17.4012 22.3652 15 22.3652C12.5953 22.3652 12.3105 22.3547 11.3648 22.3125C10.4859 22.2738 10.0113 22.1262 9.69492 22.0031C9.27656 21.8414 8.97422 21.6445 8.66133 21.3316C8.34492 21.0152 8.15156 20.7164 7.98984 20.298C7.8668 19.9816 7.71914 19.5035 7.68047 18.6281C7.63828 17.6789 7.62773 17.3941 7.62773 14.993C7.62773 12.5883 7.63828 12.3035 7.68047 11.3578C7.71914 10.4789 7.8668 10.0043 7.98984 9.68789C8.15156 9.26953 8.34844 8.96719 8.66133 8.6543C8.97773 8.33789 9.27656 8.14453 9.69492 7.98281C10.0113 7.85977 10.4895 7.71211 11.3648 7.67344C12.3105 7.63125 12.5953 7.6207 15 7.6207ZM15 6C12.5566 6 12.2508 6.01055 11.291 6.05273C10.3348 6.09492 9.67734 6.24961 9.10781 6.47109C8.51367 6.70312 8.01094 7.00898 7.51172 7.51172C7.00898 8.01094 6.70313 8.51367 6.47109 9.1043C6.24961 9.67734 6.09492 10.3312 6.05273 11.2875C6.01055 12.2508 6 12.5566 6 15C6 17.4434 6.01055 17.7492 6.05273 18.709C6.09492 19.6652 6.24961 20.3227 6.47109 20.8922C6.70313 21.4863 7.00898 21.9891 7.51172 22.4883C8.01094 22.9875 8.51367 23.2969 9.1043 23.5254C9.67734 23.7469 10.3313 23.9016 11.2875 23.9437C12.2473 23.9859 12.5531 23.9965 14.9965 23.9965C17.4398 23.9965 17.7457 23.9859 18.7055 23.9437C19.6617 23.9016 20.3191 23.7469 20.8887 23.5254C21.4793 23.2969 21.982 22.9875 22.4813 22.4883C22.9805 21.9891 23.2898 21.4863 23.5184 20.8957C23.7398 20.3227 23.8945 19.6687 23.9367 18.7125C23.9789 17.7527 23.9895 17.4469 23.9895 15.0035C23.9895 12.5602 23.9789 12.2543 23.9367 11.2945C23.8945 10.3383 23.7398 9.68086 23.5184 9.11133C23.2969 8.51367 22.991 8.01094 22.4883 7.51172C21.9891 7.0125 21.4863 6.70312 20.8957 6.47461C20.3227 6.25312 19.6688 6.09844 18.7125 6.05625C17.7492 6.01055 17.4434 6 15 6Z" fill="#333333"/>
<path d="M15 10.377C12.4477 10.377 10.377 12.4477 10.377 15C10.377 17.5523 12.4477 19.623 15 19.623C17.5523 19.623 19.623 17.5523 19.623 15C19.623 12.4477 17.5523 10.377 15 10.377ZM15 17.9988C13.3441 17.9988 12.0012 16.6559 12.0012 15C12.0012 13.3441 13.3441 12.0012 15 12.0012C16.6559 12.0012 17.9988 13.3441 17.9988 15C17.9988 16.6559 16.6559 17.9988 15 17.9988Z" fill="#333333"/>
<path d="M20.8852 10.1942C20.8852 10.7918 20.4 11.2735 19.8059 11.2735C19.2082 11.2735 18.7266 10.7883 18.7266 10.1942C18.7266 9.59649 19.2117 9.11485 19.8059 9.11485C20.4 9.11485 20.8852 9.60001 20.8852 10.1942Z" fill="#333333"/>
</g>
<defs>
<clipPath id="clip0_2305_32">
<rect width="18" height="18" fill="white" transform="translate(6 6)"/>
</clipPath>
</defs>
</svg>
