<svg width="30" height="30" viewBox="0 0 30 30" fill="none" xmlns="http://www.w3.org/2000/svg">
<circle cx="15" cy="15" r="15" fill="#D9D9D9"/>
<g clip-path="url(#clip0_2305_35)">
<path d="M15.2445 6C10.3111 6 7.6875 9.16139 7.6875 12.6085C7.6875 14.2072 8.58079 16.2008 10.0107 16.8331C10.2279 16.931 10.346 16.8894 10.3944 16.688C10.4371 16.535 10.625 15.7981 10.7161 15.4504C10.7443 15.339 10.7296 15.2423 10.6396 15.1377C10.1649 14.5886 9.78797 13.5885 9.78797 12.6502C9.78797 10.2459 11.6994 7.91146 14.952 7.91146C17.7646 7.91146 19.7323 9.73854 19.7323 12.352C19.7323 15.3053 18.1696 17.3484 16.1389 17.3484C15.015 17.3484 14.1779 16.4663 14.4434 15.375C14.7641 14.0756 15.393 12.6783 15.393 11.7411C15.393 10.9007 14.9182 10.2054 13.9484 10.2054C12.8042 10.2054 11.8761 11.3384 11.8761 12.8594C11.8761 13.8259 12.2181 14.4784 12.2181 14.4784C12.2181 14.4784 11.0863 19.0506 10.8759 19.9045C10.5204 21.3502 10.9243 23.6914 10.9591 23.8928C10.9805 24.0042 11.1054 24.0391 11.1752 23.9479C11.2865 23.8017 12.6546 21.8497 13.0382 20.4389C13.1777 19.9248 13.7504 17.84 13.7504 17.84C14.1273 18.5207 15.2152 19.0911 16.374 19.0911C19.8212 19.0911 22.312 16.0613 22.312 12.3014C22.2997 8.69675 19.2148 6 15.2445 6Z" fill="#333333"/>
</g>
<defs>
<clipPath id="clip0_2305_35">
<rect width="18" height="18" fill="white" transform="translate(6 6)"/>
</clipPath>
</defs>
</svg>
