<svg width="30" height="30" viewBox="0 0 30 30" fill="none" xmlns="http://www.w3.org/2000/svg">
<circle cx="15" cy="15" r="15" fill="#D9D9D9"/>
<path d="M16.965 6.2913C16.3472 6.10302 15.6853 6 15.0014 6C13.0047 6 11.2175 6.87034 10.0225 8.24156L13.0929 10.7353L16.965 6.2913Z" fill="#333333"/>
<path d="M10.0224 8.24157C9.03795 9.3711 8.49872 10.8005 8.5 12.2771C8.5 13.4565 8.7427 14.4156 9.14351 15.2718L13.0928 10.7354L10.0224 8.24157Z" fill="#333333"/>
<path d="M15.0024 9.8791C15.4765 9.87952 15.9405 10.0108 16.3398 10.2574C16.7392 10.5041 17.0573 10.8558 17.2567 11.2713C17.4561 11.6867 17.5284 12.1486 17.4652 12.6024C17.402 13.0562 17.2058 13.4832 16.8999 13.8329L20.7683 9.38887C19.9743 7.91098 18.6054 6.79808 16.9624 6.29473L13.0977 10.7388C13.3305 10.4694 13.6219 10.2527 13.951 10.1042C14.2802 9.9556 14.6391 9.87877 15.0024 9.8791Z" fill="#333333"/>
<path d="M15.0013 14.682C13.6297 14.682 12.5155 13.6056 12.5155 12.2806C12.5139 11.7164 12.7198 11.17 13.0965 10.7388L9.14355 15.2752C9.82016 16.7211 10.9417 17.8827 12.0963 19.3463L16.8988 13.833C16.6654 14.0993 16.3748 14.3132 16.0471 14.4599C15.7194 14.6065 15.3625 14.6823 15.0013 14.682Z" fill="#333333"/>
<path d="M16.8037 20.849C18.9733 17.5737 21.4995 16.0853 21.4995 12.2771C21.4995 11.2327 21.2347 10.2487 20.7677 9.38189L12.1006 19.3464C12.4683 19.8117 12.8397 20.3055 13.2001 20.8526C14.5165 22.8206 14.1525 24 15.0019 24C15.8513 24 15.4873 22.8171 16.8037 20.849Z" fill="#333333"/>
</svg>
