<svg width="30" height="30" viewBox="0 0 30 30" fill="none" xmlns="http://www.w3.org/2000/svg">
<circle cx="15" cy="15" r="15" fill="#D9D9D9"/>
<g clip-path="url(#clip0_2305_40)">
<path d="M23.6292 10.972C23.4217 10.2009 22.8137 9.59304 22.0427 9.3854C20.6341 9 14.9998 9 14.9998 9C14.9998 9 9.36567 9 7.95711 9.3708C7.20091 9.57822 6.57811 10.2011 6.37069 10.972C6 12.3805 6 15.3015 6 15.3015C6 15.3015 6 18.2371 6.37069 19.6309C6.57831 20.4019 7.18609 21.0098 7.95722 21.2174C9.38049 21.6029 15 21.6029 15 21.6029C15 21.6029 20.6341 21.6029 22.0427 21.2321C22.8138 21.0246 23.4217 20.4167 23.6293 19.6457C23.9999 18.2371 23.9999 15.3163 23.9999 15.3163C23.9999 15.3163 24.0147 12.3805 23.6292 10.972ZM13.2059 17.9999V12.6029L17.8912 15.3014L13.2059 17.9999Z" fill="#333333"/>
</g>
<defs>
<clipPath id="clip0_2305_40">
<rect width="18" height="18" fill="white" transform="translate(6 7)"/>
</clipPath>
</defs>
</svg>
