<svg width="30" height="30" viewBox="0 0 30 30" fill="none" xmlns="http://www.w3.org/2000/svg">
<circle cx="15" cy="15" r="15" fill="#D9D9D9"/>
<path d="M11.4052 22V12.5544H8.19087V22H11.407H11.4052ZM9.79939 11.2638C10.9204 11.2638 11.6185 10.5384 11.6185 9.63188C11.597 8.70438 10.9195 8 9.82 8C8.71958 8 8 8.70525 8 9.63188C8 10.5384 8.69717 11.2638 9.77699 11.2638H9.7976H9.79939ZM13.1858 22H16.401V16.7246C16.401 16.4429 16.4217 16.1603 16.5068 15.959C16.7398 15.3946 17.2685 14.811 18.1556 14.811C19.3197 14.811 19.7848 15.6773 19.7848 16.946V22H23V16.5838C23 13.6823 21.4139 12.3321 19.2991 12.3321C17.5642 12.3321 16.8025 13.2789 16.3795 13.9246H16.401V12.5535H13.1858C13.2279 13.4399 13.1858 21.9991 13.1858 21.9991V22Z" fill="#333333"/>
</svg>
